<mxfile host="app.diagrams.net" modified="2023-11-12T07:59:51.282Z" agent="Mozilla/5.0 (Windows NT 10.0; Win64; x64) AppleWebKit/537.36 (KHTML, like Gecko) Chrome/119.0.0.0 Safari/537.36" etag="S1a-vhBUOaFn-I1iaR5R" version="22.1.0" type="github">
  <diagram name="第 1 页" id="9rgxSyXyCrH38hEzkODa">
    <mxGraphModel dx="794" dy="420" grid="1" gridSize="10" guides="1" tooltips="1" connect="1" arrows="1" fold="1" page="1" pageScale="1" pageWidth="827" pageHeight="1169" math="0" shadow="0">
      <root>
        <mxCell id="0" />
        <mxCell id="1" parent="0" />
        <mxCell id="CkN31Z0GcDgbCyYp04kP-1" value="" style="html=1;shape=mxgraph.basic.isocube;isoAngle=15;" vertex="1" parent="1">
          <mxGeometry x="140" y="80" width="100" height="100" as="geometry" />
        </mxCell>
        <mxCell id="CkN31Z0GcDgbCyYp04kP-2" value="" style="html=1;shape=mxgraph.basic.isocube;isoAngle=15;" vertex="1" parent="1">
          <mxGeometry x="270" y="80" width="100" height="100" as="geometry" />
        </mxCell>
      </root>
    </mxGraphModel>
  </diagram>
</mxfile>
